<svg viewBox="0 0 800 480" fill="none" xmlns="http://www.w3.org/2000/svg">
  <rect width="100%" height="100%" fill="white" />

  <g transform="translate(320, 150)">
    <path fill-rule="evenodd" clip-rule="evenodd" d="M43.2327 11.3438L85.6173 27.238L77.7464 48.227L35.3618 32.3328L43.2327 11.3438Z" fill="black"/>
    <path fill-rule="evenodd" clip-rule="evenodd" d="M111.192 6.15371L125.192 49.2012L103.875 56.1339L89.8749 13.0865L111.192 6.15371Z" fill="black"/>
    <path fill-rule="evenodd" clip-rule="evenodd" d="M157.609 56.0681L132.681 93.8532L113.97 81.5091L138.897 43.724L157.609 56.0681Z" fill="black"/>
    <path fill-rule="evenodd" clip-rule="evenodd" d="M147.532 123.466L102.448 127.536L100.433 105.21L145.516 101.14L147.532 123.466Z" fill="black"/>
    <path fill-rule="evenodd" clip-rule="evenodd" d="M88.5479 157.612L57.2569 124.902L73.4552 109.407L104.746 142.117L88.5479 157.612Z" fill="black"/>
    <path fill-rule="evenodd" clip-rule="evenodd" d="M25.0725 132.803L31.1368 87.9443L53.351 90.9474L47.2868 135.806L25.0725 132.803Z" fill="black"/>
    <path fill-rule="evenodd" clip-rule="evenodd" d="M4.90754 67.6822L43.7605 44.4545L55.263 63.6947L16.41 86.9224L4.90754 67.6822Z" fill="black"/>
  </g>

  <text x="405" y="350" dominant-baseline="middle" text-anchor="middle" fill="black" font-size="24" font-family="Verdana">Loading...</text>
</svg>
